<svg width="25" height="25" viewBox="0 0 25 25" fill="none" xmlns="http://www.w3.org/2000/svg">
<path d="M21.7725 6.48047C18.4425 6.15047 15.0925 5.98047 11.7525 5.98047C9.77246 5.98047 7.79246 6.08047 5.81246 6.28047L3.77246 6.48047" stroke="#E35523" stroke-width="1.5" stroke-linecap="round" stroke-linejoin="round"/>
<path d="M9.27246 5.47L9.49246 4.16C9.65246 3.21 9.77246 2.5 11.4625 2.5H14.0825C15.7725 2.5 15.9025 3.25 16.0525 4.17L16.2725 5.47" stroke="#E35523" stroke-width="1.5" stroke-linecap="round" stroke-linejoin="round"/>
<path d="M19.6225 9.64062L18.9725 19.7106C18.8625 21.2806 18.7725 22.5006 15.9825 22.5006H9.56249C6.77249 22.5006 6.68249 21.2806 6.57249 19.7106L5.92249 9.64062" stroke="#E35523" stroke-width="1.5" stroke-linecap="round" stroke-linejoin="round"/>
<path d="M11.1024 17H14.4324" stroke="#E35523" stroke-width="1.5" stroke-linecap="round" stroke-linejoin="round"/>
<path d="M10.2725 13H15.2725" stroke="#E35523" stroke-width="1.5" stroke-linecap="round" stroke-linejoin="round"/>
</svg>
